<svg height="56" viewBox="0 0 56 56" width="56" xmlns="http://www.w3.org/2000/svg"><path d="m27.9999 51.9063c13.0547 0 23.9064-10.8282 23.9064-23.9063 0-13.0547-10.8751-23.9063-23.9298-23.9063-13.0782 0-23.8828 10.8516-23.8828 23.9063 0 13.0781 10.8281 23.9063 23.9062 23.9063zm0-3.9844c-11.0625 0-19.8985-8.8594-19.8985-19.9219 0-11.0391 8.8126-19.9219 19.8751-19.9219 11.039 0 19.9218 8.8828 19.9454 19.9219.0235 11.0625-8.8829 19.9219-19.922 19.9219zm-8.0156-9.9844c.5156 0 .9844-.2109 1.3359-.5859l6.6563-6.6797 6.6562 6.6797c.3516.3515.8203.5859 1.3594.5859 1.0313 0 1.875-.8672 1.875-1.8985 0-.539-.2109-.9843-.5625-1.3359l-6.6563-6.6562 6.6797-6.7032c.375-.3984.5625-.7968.5625-1.3125 0-1.0546-.8437-1.8749-1.875-1.8749-.4921 0-.9141.164-1.3125.5625l-6.7265 6.7031-6.7032-6.6797c-.3515-.375-.7734-.5391-1.289-.5391-1.0547 0-1.875.7969-1.875 1.8516 0 .5156.1875.9609.5625 1.3125l6.6562 6.6797-6.6562 6.6797c-.375.3281-.5625.7968-.5625 1.3124 0 1.0313.8203 1.8985 1.875 1.8985z"/></svg>